<svg width="507" height="290" viewBox="0 0 507 290" fill="none" xmlns="http://www.w3.org/2000/svg">
<path d="M483.816 136.537C482.208 158.479 471.735 181.038 449.52 194.931C410.055 219.606 351.117 209.156 302.602 221.035C273.191 228.235 244.435 239.363 222.089 255.693C185.52 282.415 105.334 283.265 66.7567 250.211C30.7199 219.333 33.8542 184.012 57.8689 147.548C68.4858 131.428 80.6887 115.764 87.8619 98.5654C96.7319 77.3034 97.3336 52.9872 115.836 35.7506C137.126 15.921 174.746 5.9425 207.737 10.4227C218.629 11.902 229.623 14.293 240.21 17.2381C271.246 25.8724 304.487 28.9178 337.262 25.8613C349.225 24.7457 361.193 24.4996 373.146 25.6826C406.264 28.9599 436.856 43.6014 456.679 64.2003C476.499 84.8016 485.685 110.982 483.816 136.537Z" fill="#D8BA8B"/>
<path d="M9.33686 243.617C9.80019 244.328 10.5524 244.99 11.1331 245.645C12.6004 247.301 14.068 248.957 15.5354 250.613C18.9037 254.414 22.2721 258.215 25.6404 262.016C26.4251 262.902 27.2098 263.787 27.9948 264.673C29.5584 266.437 33.3277 264.772 31.7497 262.991C26.2807 256.819 20.8114 250.647 15.3424 244.476C14.6151 243.655 13.6724 242.825 13.0917 241.935C11.8401 240.016 8.08773 241.702 9.33686 243.617Z" fill="#D8BA8B"/>
<path d="M69.7948 281.955C67.6204 279.501 65.446 277.047 63.2719 274.593C58.0494 268.699 52.8266 262.805 47.6041 256.911C41.2839 249.778 34.9636 242.645 28.6434 235.512C23.176 229.342 17.7084 223.171 12.2411 217.001C9.57867 213.997 6.98225 210.949 4.24941 207.982C4.20976 207.939 4.17178 207.894 4.13324 207.85C2.56968 206.086 -1.19962 207.752 0.378357 209.533C2.55276 211.987 4.72716 214.441 6.90129 216.895C12.1238 222.789 17.3463 228.683 22.5691 234.577C28.8893 241.71 35.2096 248.843 41.5298 255.976C46.9971 262.146 52.4648 268.317 57.9321 274.487C60.5945 277.492 63.1909 280.539 65.9238 283.506C65.9634 283.55 66.0014 283.594 66.0399 283.638C67.6035 285.402 71.3728 283.736 69.7948 281.955Z" fill="#D8BA8B"/>
<path d="M95.246 286.712C92.341 283.433 89.4362 280.155 86.5312 276.877C79.5838 269.036 72.6361 261.195 65.6886 253.354C57.263 243.845 48.8374 234.336 40.4118 224.827C33.1558 216.638 25.8997 208.45 18.6439 200.261C15.1245 196.288 11.6824 192.267 8.08026 188.339C8.03063 188.284 7.98294 188.229 7.93442 188.174C6.37085 186.41 2.60155 188.075 4.17953 189.856C7.08456 193.135 9.98931 196.413 12.8943 199.692C19.8418 207.533 26.7895 215.373 33.7369 223.214C42.1625 232.723 50.5881 242.232 59.0137 251.741C66.2698 259.93 73.5256 268.119 80.7816 276.308C84.3011 280.28 87.7432 284.301 91.3453 288.23C91.3949 288.284 91.4426 288.339 91.4911 288.394C93.0547 290.159 96.824 288.493 95.246 286.712Z" fill="#D8BA8B"/>
<path d="M10.8397 172.894C10.8397 173.531 11.3488 173.977 11.7841 174.468C12.4393 175.208 13.0948 175.947 13.75 176.687C16.1912 179.442 18.6323 182.197 21.0737 184.952C29.2054 194.13 37.3371 203.307 45.4688 212.484C55.3504 223.636 65.2322 234.788 75.1138 245.941C83.675 255.603 92.2362 265.265 100.798 274.927C104.967 279.632 109.059 284.384 113.309 289.047C113.37 289.113 113.428 289.181 113.488 289.249C115.051 291.013 118.821 289.347 117.243 287.566C113.833 283.718 110.423 279.87 107.013 276.022C98.8803 266.843 90.7475 257.664 82.6144 248.486C72.7306 237.331 62.8468 226.177 52.9633 215.022C44.4673 205.434 35.9712 195.845 27.4752 186.257C24.6736 183.095 21.8723 179.934 19.0707 176.772C17.7533 175.285 16.543 173.658 15.0707 172.258C15.0047 172.195 14.9509 172.122 14.8918 172.056C14.9908 172.336 15.0898 172.617 15.1888 172.897C15.1888 172.896 15.1888 172.895 15.1888 172.895C15.1882 170.75 10.8397 170.746 10.8397 172.894Z" fill="#D8BA8B"/>
<path d="M137.026 285.923C136.011 284.777 134.996 283.632 133.98 282.486C131.234 279.387 128.488 276.288 125.742 273.189C121.663 268.585 117.583 263.981 113.504 259.377C108.55 253.786 103.596 248.195 98.6415 242.604C93.1895 236.45 87.7374 230.297 82.2853 224.144C76.7816 217.933 71.2777 211.722 65.774 205.51C60.666 199.745 55.558 193.981 50.4501 188.216C46.1129 183.321 41.776 178.426 37.4389 173.532C34.3339 170.027 31.229 166.523 28.1238 163.019C26.6453 161.351 25.1938 159.666 23.6873 158.012C23.623 157.942 23.5612 157.87 23.4979 157.799C21.9344 156.034 18.1651 157.7 19.7431 159.481C20.7582 160.627 21.7736 161.772 22.7887 162.918C25.5348 166.017 28.2807 169.116 31.0268 172.215C35.1064 176.819 39.1857 181.423 43.2653 186.027C48.2194 191.618 53.1735 197.209 58.1276 202.801C63.5797 208.954 69.0317 215.107 74.4838 221.26C79.9875 227.471 85.4914 233.683 90.9951 239.894C96.1031 245.659 101.211 251.424 106.319 257.188C110.656 262.083 114.993 266.978 119.33 271.872C122.435 275.377 125.54 278.881 128.645 282.385C130.124 284.053 131.575 285.738 133.082 287.392C133.146 287.463 133.208 287.534 133.271 287.606C134.835 289.37 138.604 287.704 137.026 285.923Z" fill="#D8BA8B"/>
<path d="M154.988 282.227C153.899 280.998 152.809 279.768 151.72 278.539C148.755 275.193 145.791 271.847 142.826 268.502C138.442 263.553 134.057 258.604 129.672 253.655C124.322 247.617 118.971 241.579 113.621 235.54C107.761 228.926 101.9 222.312 96.0399 215.698C90.1239 209.021 84.2082 202.344 78.2922 195.667C72.7758 189.441 67.2597 183.216 61.7433 176.99C57.0814 171.728 52.4199 166.467 47.758 161.206C44.4057 157.422 41.0535 153.639 37.7012 149.855C36.1138 148.064 34.5527 146.257 32.9378 144.48C32.8688 144.403 32.802 144.326 32.734 144.249C31.1708 142.485 27.4012 144.151 28.9792 145.932C30.0686 147.161 31.1577 148.391 32.2472 149.62C35.2118 152.966 38.1762 156.312 41.1408 159.657C45.5256 164.606 49.9105 169.555 54.2954 174.504C59.6454 180.542 64.9957 186.58 70.3458 192.619C76.2063 199.233 82.0668 205.847 87.9273 212.461C93.8433 219.138 99.759 225.815 105.675 232.492C111.191 238.718 116.708 244.943 122.224 251.169C126.886 256.43 131.547 261.692 136.209 266.953C139.561 270.737 142.914 274.52 146.266 278.303C147.853 280.095 149.415 281.902 151.029 283.679C151.098 283.755 151.165 283.833 151.233 283.91C152.797 285.674 156.566 284.008 154.988 282.227Z" fill="#D8BA8B"/>
<path d="M171.189 276.54C170.03 275.231 168.87 273.922 167.71 272.614C164.572 269.071 161.433 265.529 158.295 261.987C153.657 256.753 149.019 251.519 144.382 246.285C138.725 239.901 133.068 233.517 127.411 227.133C121.215 220.14 115.019 213.147 108.823 206.155C102.543 199.067 96.2623 191.979 89.9819 184.891C84.15 178.309 78.3183 171.727 72.4864 165.146C67.5572 159.583 62.6278 154.02 57.6986 148.457C54.152 144.454 50.6054 140.451 47.0587 136.448C45.3726 134.545 43.7134 132.626 41.9987 130.738C41.926 130.658 41.8559 130.577 41.7844 130.496C40.2208 128.731 36.4515 130.397 38.0295 132.178C39.1891 133.487 40.3486 134.796 41.5085 136.104C44.647 139.647 47.7857 143.189 50.9242 146.731C55.5619 151.965 60.1997 157.199 64.8371 162.433C70.4938 168.817 76.1508 175.201 81.8076 181.585C88.0036 188.578 94.1996 195.571 100.396 202.563C106.676 209.651 112.957 216.739 119.237 223.827C125.069 230.409 130.9 236.991 136.732 243.572C141.662 249.135 146.591 254.698 151.52 260.261C155.067 264.264 158.613 268.267 162.16 272.27C163.846 274.173 165.505 276.092 167.22 277.98C167.293 278.06 167.363 278.141 167.434 278.222C168.998 279.987 172.767 278.321 171.189 276.54Z" fill="#D8BA8B"/>
<path d="M185.414 268.625C184.205 267.261 182.996 265.897 181.787 264.532C178.498 260.82 175.209 257.108 171.919 253.395C167.076 247.929 162.233 242.463 157.39 236.997C151.458 230.303 145.527 223.609 139.595 216.914C133.097 209.58 126.599 202.247 120.101 194.913C113.541 187.509 106.981 180.106 100.421 172.703C94.3055 165.801 88.1896 158.899 82.074 151.996C76.925 146.185 71.7762 140.374 66.6272 134.563C62.9084 130.366 59.1895 126.169 55.4707 121.972C53.71 119.985 51.9768 117.981 50.1872 116.009C50.1107 115.925 50.0367 115.839 49.9615 115.755C48.3979 113.99 44.6287 115.656 46.2066 117.437C47.4153 118.801 48.6242 120.165 49.8329 121.53C53.1222 125.242 56.4115 128.954 59.7009 132.667C64.544 138.133 69.3872 143.599 74.2304 149.065C80.1619 155.759 86.0934 162.453 92.0249 169.147C98.5232 176.481 105.021 183.815 111.52 191.149C118.079 198.552 124.639 205.956 131.199 213.359C137.315 220.261 143.431 227.163 149.546 234.065C154.695 239.876 159.844 245.687 164.993 251.498C168.712 255.695 172.431 259.892 176.15 264.09C177.91 266.077 179.643 268.08 181.433 270.052C181.51 270.137 181.584 270.222 181.659 270.307C183.222 272.072 186.992 270.406 185.414 268.625Z" fill="#D8BA8B"/>
<path d="M198.795 259.756C197.525 258.322 196.254 256.888 194.984 255.455C191.527 251.553 188.07 247.651 184.613 243.75C179.5 237.979 174.387 232.209 169.274 226.438C163.036 219.398 156.798 212.358 150.56 205.318C143.727 197.607 136.895 189.896 130.063 182.185C123.167 174.403 116.271 166.621 109.375 158.838C102.97 151.609 96.5639 144.38 90.158 137.15C84.7234 131.017 79.2888 124.883 73.8542 118.75C69.9468 114.34 66.0391 109.93 62.1317 105.52C60.2826 103.433 58.4589 101.331 56.5834 99.2584C56.5036 99.1702 56.4259 99.0808 56.3475 98.9921C54.7839 97.2277 51.0146 98.8935 52.5926 100.675C53.8628 102.108 55.1333 103.542 56.4035 104.976C59.8606 108.877 63.3176 112.779 66.7747 116.68C71.8877 122.451 77.0007 128.221 82.1137 133.992C88.3518 141.032 94.59 148.072 100.828 155.112C107.66 162.823 114.493 170.534 121.325 178.245C128.221 186.027 135.116 193.81 142.012 201.592C148.418 208.821 154.824 216.051 161.23 223.28C166.664 229.414 172.099 235.547 177.533 241.68C181.441 246.09 185.348 250.5 189.256 254.91C191.105 256.997 192.929 259.099 194.804 261.172C194.884 261.26 194.962 261.35 195.04 261.438C196.604 263.203 200.373 261.537 198.795 259.756Z" fill="#D8BA8B"/>
<path d="M57.5359 81.7782C57.5359 82.5089 58.2962 83.1446 58.8028 83.7161C59.7843 84.8239 60.7659 85.9316 61.7474 87.0396C65.4025 91.1647 69.0578 95.2897 72.7129 99.4148C78.1278 105.526 83.5425 111.637 88.9574 117.748C95.6018 125.246 102.246 132.745 108.89 140.244C116.152 148.439 123.414 156.635 130.676 164.83C138.038 173.139 145.4 181.448 152.763 189.757C159.631 197.508 166.499 205.259 173.367 213.01C179.154 219.541 184.94 226.071 190.727 232.602C194.904 237.316 199.081 242.031 203.259 246.745C205.232 248.972 207.181 251.212 209.179 253.426C209.266 253.523 209.351 253.62 209.437 253.717C211 255.481 214.769 253.815 213.191 252.034C211.832 250.5 210.473 248.966 209.113 247.432C205.448 243.295 201.782 239.158 198.116 235.021C192.659 228.862 187.202 222.703 181.745 216.545C175.134 209.083 168.523 201.623 161.912 194.162C154.62 185.933 147.329 177.703 140.037 169.475C132.728 161.226 125.42 152.977 118.111 144.729C111.248 136.984 104.385 129.238 97.5222 121.493C91.7629 114.994 86.0036 108.494 80.244 101.994C76.0735 97.2872 71.9027 92.5804 67.7322 87.8733C65.7774 85.6674 63.9313 83.3644 61.845 81.2293C61.7538 81.136 61.6734 81.0354 61.5877 80.9389C61.6867 81.2193 61.7857 81.4996 61.8847 81.7802C61.8847 81.7795 61.8847 81.7787 61.8847 81.778C61.8844 79.6336 57.5359 79.6299 57.5359 81.7782Z" fill="#D8BA8B"/>
<path d="M228.494 245.337C227.061 243.721 225.629 242.104 224.196 240.487C220.298 236.087 216.4 231.687 212.501 227.288C206.736 220.781 200.971 214.274 195.206 207.768C188.197 199.858 181.19 191.949 174.181 184.04C166.507 175.379 158.833 166.717 151.159 158.056C143.387 149.285 135.615 140.513 127.842 131.741C120.596 123.562 113.349 115.384 106.103 107.205C99.9811 100.296 93.8594 93.3871 87.7376 86.4782C83.3509 81.5272 78.9641 76.5762 74.5773 71.6254C72.4963 69.2769 70.4395 66.9146 68.3338 64.579C68.2423 64.4774 68.1528 64.3746 68.0621 64.2726C66.4988 62.5081 62.7293 64.1739 64.3072 65.955C65.7399 67.5717 67.1723 69.1887 68.605 70.8055C72.5035 75.2052 76.4018 79.6051 80.3003 84.0048C86.0654 90.5113 91.8305 97.0179 97.5957 103.525C104.604 111.434 111.612 119.343 118.62 127.253C126.294 135.914 133.968 144.575 141.642 153.236C149.414 162.008 157.187 170.78 164.959 179.551C172.206 187.73 179.452 195.908 186.698 204.087C192.82 210.996 198.942 217.905 205.064 224.814C209.45 229.765 213.837 234.716 218.224 239.667C220.305 242.016 222.362 244.378 224.467 246.713C224.559 246.815 224.648 246.918 224.739 247.02C226.303 248.784 230.072 247.118 228.494 245.337Z" fill="#D8BA8B"/>
<path d="M244.615 239.561C243.12 237.874 241.626 236.187 240.131 234.5C236.065 229.911 231.998 225.321 227.931 220.731C221.939 213.968 215.946 207.206 209.954 200.443C202.647 192.195 195.339 183.948 188.031 175.7C180.001 166.638 171.971 157.575 163.942 148.513C155.836 139.365 147.731 130.217 139.626 121.07C132.093 112.568 124.56 104.066 117.027 95.5646C110.659 88.3783 104.292 81.1919 97.9243 74.0056C93.3306 68.821 88.7367 63.6367 84.1431 58.4521C81.9709 56.0007 79.8226 53.5357 77.626 51.0969C77.5334 50.994 77.4427 50.8901 77.3512 50.7868C75.7876 49.0223 72.0183 50.6882 73.5963 52.4692C75.0908 54.1559 76.5854 55.8426 78.0799 57.5295C82.1467 62.1192 86.2135 66.7089 90.28 71.2986C96.2723 78.0614 102.265 84.8243 108.257 91.5872C115.565 99.8346 122.873 108.082 130.18 116.33C138.21 125.392 146.24 134.455 154.27 143.517C162.375 152.665 170.48 161.812 178.585 170.96C186.118 179.462 193.652 187.963 201.185 196.465C207.552 203.652 213.92 210.838 220.287 218.024C224.881 223.209 229.475 228.393 234.068 233.578C236.24 236.029 238.389 238.494 240.585 240.933C240.678 241.036 240.769 241.14 240.86 241.243C242.424 243.008 246.193 241.342 244.615 239.561Z" fill="#D8BA8B"/>
<path d="M261.487 234.63C259.949 232.894 258.411 231.157 256.872 229.421C252.703 224.716 248.533 220.01 244.364 215.305C238.201 208.35 232.039 201.395 225.877 194.44C218.335 185.928 210.792 177.416 203.25 168.904C195.015 159.609 186.779 150.315 178.543 141.02C170.23 131.638 161.918 122.256 153.605 112.875C145.831 104.101 138.056 95.3272 130.282 86.5531C123.734 79.163 117.186 71.7729 110.638 64.3829C105.929 59.0682 101.22 53.7536 96.511 48.4389C94.2767 45.9174 92.0654 43.3827 89.8075 40.8733C89.7127 40.7679 89.6198 40.6614 89.5258 40.5553C87.9622 38.7909 84.193 40.4567 85.7709 42.2378C87.3093 43.974 88.8476 45.7102 90.3859 47.4462C94.5553 52.1517 98.7247 56.8572 102.894 61.5628C109.057 68.5175 115.219 75.4723 121.381 82.4273C128.923 90.9394 136.466 99.4514 144.008 107.963C152.244 117.258 160.479 126.553 168.715 135.848C177.028 145.229 185.34 154.611 193.653 163.993C201.427 172.767 209.202 181.54 216.976 190.315C223.524 197.705 230.072 205.095 236.62 212.485C241.329 217.799 246.038 223.114 250.747 228.429C252.981 230.95 255.193 233.485 257.451 235.994C257.545 236.1 257.638 236.206 257.732 236.312C259.296 238.077 263.065 236.411 261.487 234.63Z" fill="#D8BA8B"/>
<path d="M279.255 230.715C277.691 228.95 276.127 227.185 274.563 225.419C270.306 220.615 266.049 215.811 261.793 211.007C255.497 203.902 249.201 196.796 242.905 189.691C235.223 181.021 227.541 172.352 219.859 163.682C211.445 154.186 203.031 144.69 194.616 135.193C186.123 125.608 177.629 116.022 169.135 106.436C161.216 97.4984 153.296 88.5607 145.377 79.6232C138.685 72.0707 131.993 64.5185 125.301 56.9661C120.49 51.5364 115.679 46.1068 110.868 40.6771C108.591 38.1078 106.337 35.5259 104.038 32.9683C103.94 32.8597 103.844 32.7498 103.747 32.6405C102.184 30.8761 98.4145 32.5419 99.9924 34.323C101.557 36.0881 103.121 37.8534 104.685 39.6185C108.942 44.4224 113.198 49.2266 117.455 54.0305C123.751 61.136 130.047 68.2415 136.343 75.3469C144.024 84.0165 151.706 92.686 159.388 101.356C167.803 110.852 176.217 120.348 184.631 129.845C193.125 139.43 201.618 149.016 210.112 158.602C218.032 167.539 225.951 176.477 233.871 185.415C240.562 192.967 247.255 200.519 253.946 208.072C258.757 213.501 263.568 218.931 268.379 224.361C270.656 226.93 272.911 229.512 275.21 232.07C275.307 232.178 275.403 232.288 275.5 232.397C277.064 234.162 280.833 232.496 279.255 230.715Z" fill="#D8BA8B"/>
<path d="M298.282 228.22C296.688 226.421 295.094 224.622 293.5 222.823C289.162 217.927 284.824 213.032 280.486 208.136C274.072 200.896 267.657 193.656 261.242 186.417C253.441 177.613 245.641 168.809 237.84 160.005C229.298 150.365 220.756 140.724 212.214 131.084C203.565 121.323 194.917 111.563 186.269 101.803C178.206 92.7028 170.143 83.6031 162.08 74.5032C155.269 66.8162 148.458 59.1292 141.647 51.442C136.765 45.9327 131.884 40.4231 127.002 34.9138C124.688 32.3024 122.396 29.6791 120.06 27.0789C119.959 26.9667 119.86 26.8534 119.76 26.7405C118.197 24.9761 114.427 26.6419 116.005 28.423C117.599 30.2221 119.194 32.021 120.788 33.8201C125.125 38.7156 129.463 43.6112 133.801 48.5067C140.216 55.7465 146.63 62.9863 153.045 70.2259C160.846 79.0297 168.646 87.8334 176.447 96.6372C184.989 106.278 193.531 115.918 202.073 125.559C210.722 135.319 219.37 145.08 228.018 154.84C236.081 163.94 244.144 173.04 252.207 182.14C259.018 189.827 265.829 197.513 272.64 205.201C277.522 210.71 282.404 216.22 287.285 221.729C289.599 224.34 291.892 226.964 294.227 229.564C294.328 229.676 294.427 229.789 294.527 229.902C296.09 231.667 299.86 230.001 298.282 228.22Z" fill="#D8BA8B"/>
<path d="M318.146 226.666C316.533 224.846 314.92 223.026 313.307 221.205C308.918 216.252 304.529 211.299 300.14 206.346C293.671 199.045 287.202 191.744 280.733 184.444C272.844 175.54 264.955 166.637 257.066 157.733C248.399 147.952 239.733 138.171 231.066 128.39C222.318 118.517 213.57 108.644 204.822 98.7711C196.69 89.5932 188.557 80.4153 180.425 71.2374C173.551 63.4798 166.678 55.7223 159.804 47.9647C154.847 42.3698 149.889 36.7748 144.931 31.18C142.587 28.5346 140.265 25.8772 137.899 23.2433C137.799 23.1323 137.701 23.0203 137.602 22.9087C136.039 21.1443 132.27 22.8101 133.848 24.591C135.461 26.4113 137.073 28.2315 138.686 30.0518C143.075 35.0052 147.464 39.9585 151.853 44.9117C158.322 52.2123 164.791 59.5129 171.26 66.8134C179.149 75.717 187.038 84.6205 194.927 93.524C203.594 103.305 212.261 113.086 220.927 122.867C229.675 132.74 238.424 142.613 247.172 152.486C255.304 161.664 263.436 170.842 271.568 180.02C278.442 187.777 285.316 195.535 292.189 203.292C297.147 208.887 302.105 214.482 307.062 220.077C309.406 222.723 311.729 225.38 314.095 228.014C314.194 228.125 314.292 228.237 314.391 228.348C315.955 230.113 319.724 228.447 318.146 226.666Z" fill="#D8BA8B"/>
<path d="M338.257 225.395C336.644 223.575 335.03 221.754 333.417 219.933C329.027 214.979 324.637 210.024 320.247 205.07C313.777 197.768 307.307 190.466 300.836 183.163C292.946 174.258 285.055 165.352 277.164 156.447C268.495 146.664 259.827 136.88 251.158 127.097C242.408 117.222 233.659 107.347 224.909 97.4721C216.775 88.292 208.64 79.1122 200.507 69.9322C193.632 62.1729 186.756 54.4137 179.881 46.6545C174.923 41.0582 169.964 35.4621 165.005 29.8659C162.661 27.2198 160.338 24.5618 157.972 21.9275C157.872 21.8165 157.774 21.7045 157.675 21.5929C156.112 19.8285 152.342 21.4943 153.92 23.2751C155.533 25.0959 157.147 26.9165 158.76 28.7373C163.15 33.6917 167.54 38.6461 171.93 43.6005C178.4 50.9028 184.87 58.2049 191.341 65.5072C199.231 74.4126 207.122 83.3183 215.013 92.2237C223.682 102.007 232.35 111.79 241.019 121.573C249.769 131.448 258.518 141.323 267.268 151.198C275.402 160.378 283.536 169.558 291.67 178.738C298.545 186.498 305.421 194.257 312.296 202.016C317.254 207.612 322.213 213.208 327.171 218.805C329.516 221.451 331.839 224.109 334.205 226.743C334.305 226.854 334.403 226.966 334.502 227.078C336.065 228.842 339.835 227.176 338.257 225.395Z" fill="#D8BA8B"/>
<path d="M357.988 223.693C356.4 221.901 354.812 220.109 353.224 218.317C348.937 213.478 344.65 208.64 340.363 203.802C334.031 196.655 327.698 189.509 321.366 182.362C313.594 173.59 305.821 164.818 298.049 156.046C289.586 146.495 281.124 136.945 272.661 127.394C264.12 117.755 255.579 108.115 247.037 98.4753C239.026 89.4342 231.015 80.3932 223.005 71.3521C216.277 63.7599 209.55 56.1678 202.823 48.5754C197.983 43.1134 193.143 37.6513 188.304 32.1893C186.004 29.5932 183.727 26.9839 181.402 24.4003C181.303 24.2898 181.206 24.1784 181.107 24.0673C179.544 22.3028 175.775 23.9687 177.353 25.7497C178.941 27.5418 180.529 29.3339 182.116 31.126C186.403 35.9644 190.691 40.8027 194.978 45.6411C201.31 52.7876 207.642 59.9341 213.974 67.0804C221.747 75.8524 229.519 84.6245 237.292 93.3965C245.754 102.947 254.217 112.498 262.679 122.049C271.221 131.688 279.762 141.328 288.303 150.967C296.314 160.008 304.325 169.05 312.336 178.091C319.063 185.683 325.79 193.275 332.518 200.867C337.357 206.329 342.197 211.791 347.037 217.253C349.337 219.849 351.614 222.459 353.938 225.042C354.037 225.153 354.135 225.264 354.233 225.375C355.796 227.14 359.566 225.474 357.988 223.693Z" fill="#D8BA8B"/>
<path d="M203.885 31.2161C203.885 31.9863 204.749 32.6992 205.282 33.3007C206.37 34.5283 207.457 35.7559 208.545 36.9837C212.608 41.5685 216.67 46.1535 220.732 50.7383C226.772 57.5548 232.812 64.3714 238.851 71.1878C246.237 79.5235 253.623 87.8591 261.009 96.1947C269.109 105.337 277.21 114.479 285.31 123.622C293.494 132.858 301.678 142.094 309.862 151.331C317.498 159.949 325.134 168.567 332.77 177.185C339.226 184.472 345.683 191.759 352.139 199.046C356.786 204.29 361.432 209.533 366.078 214.777C368.282 217.264 370.463 219.764 372.69 222.24C372.787 222.347 372.881 222.455 372.977 222.563C374.54 224.328 378.31 222.662 376.732 220.881C375.223 219.178 373.714 217.475 372.205 215.772C368.1 211.139 363.994 206.505 359.889 201.872C353.839 195.044 347.79 188.217 341.74 181.389C334.363 173.063 326.986 164.737 319.609 156.411C311.503 147.263 303.398 138.116 295.292 128.968C287.136 119.763 278.981 110.559 270.825 101.354C263.22 92.7704 255.615 84.1869 248.009 75.6037C241.562 68.3273 235.115 61.0508 228.668 53.7744C224.035 48.5458 219.402 43.3174 214.769 38.0889C212.592 35.6317 210.529 33.0773 208.216 30.6929C208.117 30.5913 208.029 30.4824 207.937 30.3774C208.036 30.6578 208.135 30.9383 208.234 31.2187C208.234 31.218 208.234 31.2172 208.234 31.2165C208.234 29.0714 203.885 29.0678 203.885 31.2161Z" fill="#D8BA8B"/>
<path d="M393.984 216.377C392.556 214.766 391.128 213.154 389.7 211.542C385.814 207.157 381.928 202.771 378.042 198.386C372.317 191.924 366.592 185.463 360.867 179.002C353.86 171.093 346.853 163.185 339.846 155.277C332.17 146.615 324.495 137.952 316.819 129.289C309.097 120.574 301.376 111.86 293.654 103.145C286.43 94.9918 279.206 86.8387 271.982 78.6859C265.879 71.7978 259.776 64.9098 253.672 58.0217C249.298 53.0849 244.924 48.1482 240.549 43.2116C238.471 40.8657 236.417 38.5054 234.313 36.1729C234.223 36.0736 234.136 35.9733 234.047 35.8734C232.484 34.1089 228.714 35.7748 230.292 37.5556C231.72 39.1673 233.148 40.7789 234.576 42.3906C238.462 46.776 242.348 51.1617 246.234 55.5472C251.959 62.0084 257.684 68.4697 263.409 74.9312C270.416 82.8395 277.423 90.7475 284.43 98.6557C292.106 107.318 299.782 115.981 307.457 124.644C315.179 133.358 322.901 142.073 330.622 150.788C337.846 158.941 345.07 167.094 352.294 175.247C358.398 182.135 364.501 189.023 370.604 195.911C374.978 200.848 379.352 205.785 383.727 210.722C385.805 213.067 387.86 215.428 389.964 217.76C390.053 217.86 390.14 217.96 390.229 218.06C391.792 219.824 395.562 218.158 393.984 216.377Z" fill="#D8BA8B"/>
<path d="M409.356 209.759C407.998 208.226 406.639 206.693 405.281 205.16C401.602 201.007 397.922 196.855 394.243 192.702C388.806 186.566 383.368 180.429 377.931 174.293C371.299 166.807 364.666 159.322 358.034 151.836C350.769 143.638 343.505 135.439 336.24 127.24C328.881 118.935 321.522 110.629 314.163 102.324C307.326 94.6073 300.489 86.891 293.652 79.1745C287.874 72.6531 282.095 66.1314 276.317 59.61C272.149 54.9064 267.982 50.2027 263.814 45.4991C261.853 43.2864 259.917 41.0601 257.932 38.8602C257.845 38.7641 257.76 38.6667 257.675 38.57C256.111 36.8056 252.342 38.4714 253.92 40.2523C255.278 41.7853 256.636 43.3183 257.995 44.8513C261.674 49.0038 265.353 53.1563 269.033 57.3089C274.47 63.4454 279.907 69.5821 285.345 75.7187C291.977 83.2042 298.609 90.6894 305.242 98.1749C312.507 106.374 319.771 114.573 327.036 122.771C334.395 131.077 341.753 139.382 349.112 147.687C355.949 155.404 362.787 163.12 369.624 170.837C375.402 177.358 381.18 183.88 386.959 190.401C391.126 195.105 395.294 199.808 399.462 204.512C401.422 206.725 403.359 208.951 405.344 211.151C405.431 211.247 405.515 211.345 405.601 211.441C407.165 213.206 410.934 211.54 409.356 209.759Z" fill="#D8BA8B"/>
<path d="M422.602 200.737C421.318 199.288 420.034 197.839 418.75 196.39C415.29 192.485 411.83 188.58 408.37 184.675C403.217 178.86 398.064 173.044 392.912 167.229C386.672 160.187 380.432 153.144 374.193 146.102C367.308 138.332 360.423 130.562 353.538 122.791C346.64 115.006 339.742 107.221 332.844 99.4355C326.364 92.1226 319.885 84.8096 313.405 77.4967C307.97 71.3623 302.534 65.2279 297.099 59.0935C293.162 54.6498 289.224 50.2061 285.287 45.7624C283.436 43.6734 281.611 41.5689 279.733 39.4943C279.651 39.4038 279.571 39.312 279.491 39.2208C277.927 37.4563 274.158 39.1222 275.736 40.903C277.02 42.3519 278.303 43.801 279.588 45.2498C283.047 49.1547 286.508 53.0598 289.967 56.9648C295.12 62.7804 300.273 68.5957 305.426 74.4114C311.666 81.4535 317.905 88.4956 324.145 95.538C331.03 103.308 337.915 111.078 344.799 118.849C351.697 126.634 358.596 134.419 365.494 142.205C371.974 149.517 378.453 156.83 384.933 164.143C390.368 170.278 395.803 176.412 401.239 182.547C405.176 186.99 409.113 191.434 413.051 195.878C414.902 197.967 416.726 200.071 418.605 202.146C418.687 202.236 418.766 202.328 418.847 202.419C420.41 204.184 424.179 202.518 422.602 200.737Z" fill="#D8BA8B"/>
<path d="M296.099 39.9169C297.296 41.2682 298.494 42.6197 299.691 43.971C302.933 47.6294 306.174 51.2875 309.416 54.9459C314.205 60.3515 318.995 65.7573 323.785 71.163C329.627 77.7567 335.47 84.3504 341.312 90.9441C347.711 98.1662 354.111 105.389 360.51 112.611C366.996 119.93 373.482 127.25 379.967 134.57C385.991 141.368 392.014 148.166 398.038 154.964C403.129 160.71 408.22 166.456 413.311 172.201C416.986 176.348 420.66 180.495 424.334 184.642C426.052 186.582 427.651 188.65 429.527 190.503C429.607 190.582 429.675 190.671 429.749 190.753C429.65 190.473 429.551 190.193 429.452 189.912C429.452 189.913 429.452 189.914 429.452 189.914C429.452 192.059 433.801 192.063 433.801 189.914C433.801 189.221 433.139 188.66 432.659 188.118C431.798 187.146 430.936 186.174 430.075 185.201C426.86 181.573 423.646 177.946 420.431 174.318C415.646 168.917 410.861 163.517 406.076 158.116C400.221 151.509 394.367 144.902 388.513 138.295C382.091 131.048 375.67 123.8 369.248 116.553C362.786 109.26 356.324 101.967 349.862 94.6741C343.808 87.8415 337.754 81.0091 331.7 74.1765C326.582 68.4 321.464 62.6233 316.345 56.8468C312.664 52.6924 308.983 48.5379 305.302 44.3835C303.563 42.4203 301.848 40.4427 300.083 38.4931C300.005 38.4077 299.93 38.321 299.854 38.2349C298.29 36.47 294.521 38.1358 296.099 39.9169Z" fill="#D8BA8B"/>
<path d="M316.354 38.8075C317.439 40.0317 318.524 41.2559 319.608 42.4801C322.56 45.8118 325.513 49.1435 328.465 52.4752C332.831 57.4032 337.198 62.3311 341.564 67.2591C346.892 73.2722 352.22 79.285 357.548 85.2981C363.385 91.8848 369.221 98.4716 375.057 105.058C380.949 111.707 386.841 118.357 392.733 125.006C398.227 131.207 403.721 137.407 409.215 143.608C413.859 148.848 418.502 154.089 423.146 159.329C426.486 163.099 429.825 166.868 433.165 170.637C434.734 172.408 436.187 174.314 437.915 175.997C437.99 176.07 438.052 176.152 438.12 176.229C438.021 175.948 437.922 175.668 437.823 175.387C437.823 175.388 437.823 175.389 437.823 175.389C437.823 177.534 442.172 177.538 442.172 175.389C442.172 174.719 441.573 174.206 441.111 173.684C440.326 172.798 439.541 171.912 438.756 171.027C435.84 167.736 432.924 164.445 430.008 161.153C425.646 156.231 421.284 151.308 416.922 146.385C411.607 140.387 406.292 134.388 400.977 128.39C395.12 121.78 389.262 115.169 383.405 108.559C377.486 101.879 371.567 95.1984 365.647 88.5182C360.148 82.3115 354.648 76.1049 349.148 69.8982C344.478 64.6269 339.807 59.3558 335.136 54.0845C331.79 50.3077 328.443 46.5308 325.097 42.754C323.503 40.9551 321.935 39.1405 320.314 37.3561C320.244 37.2795 320.177 37.202 320.109 37.1248C318.545 35.3608 314.776 37.0266 316.354 38.8075Z" fill="#D8BA8B"/>
<path d="M338.811 40.1804C342.286 44.1028 345.762 48.0251 349.237 51.9474C357.581 61.364 365.925 70.7806 374.269 80.1974C384.357 91.5827 394.446 102.968 404.534 114.353C413.207 124.142 421.88 133.93 430.553 143.718C433.438 146.974 436.324 150.23 439.209 153.486C440.538 154.987 441.754 156.657 443.261 158.059C443.326 158.12 443.378 158.191 443.436 158.257C443.337 157.976 443.238 157.696 443.139 157.416C443.139 157.416 443.139 157.417 443.139 157.418C443.139 159.562 447.487 159.566 447.487 157.418C447.487 156.776 446.968 156.323 446.529 155.828C445.861 155.074 445.193 154.32 444.524 153.565C442.003 150.719 439.481 147.873 436.959 145.027C428.649 135.649 420.339 126.27 412.029 116.892C401.942 105.509 391.856 94.1257 381.77 82.7425C372.996 72.8405 364.222 62.9387 355.448 53.0367C351.214 48.258 347.063 43.4277 342.741 38.6956C342.681 38.6304 342.624 38.5639 342.566 38.498C341.002 36.7337 337.233 38.3996 338.811 40.1804Z" fill="#D8BA8B"/>
<path d="M365.565 46.4077C368.172 49.3503 370.78 52.2928 373.387 55.2356C379.648 62.302 385.91 69.3683 392.171 76.4347C399.745 84.9829 407.319 93.5308 414.893 102.079C421.439 109.467 427.985 116.854 434.531 124.242C436.687 126.675 438.843 129.108 440.999 131.541C441.99 132.66 442.89 133.983 444.062 134.998C444.112 135.041 444.15 135.098 444.192 135.146C444.093 134.865 443.994 134.585 443.895 134.304C443.895 134.305 443.895 134.306 443.895 134.307C443.895 136.451 448.244 136.455 448.244 134.307C448.244 133.257 446.689 132.044 445.98 131.244C444.093 129.114 442.207 126.985 440.32 124.855C434.092 117.827 427.865 110.799 421.637 103.77C414.015 95.1678 406.392 86.5652 398.77 77.9626C392.209 70.5581 385.649 63.1538 379.088 55.7493C375.877 52.126 372.744 48.4527 369.451 44.8732C369.406 44.8246 369.363 44.7746 369.32 44.7255C367.756 42.9608 363.987 44.6267 365.565 46.4077Z" fill="#D8BA8B"/>
<path d="M405.637 67.6591C413.14 76.2861 420.84 84.8162 428.44 93.3933C429.475 94.5614 430.817 95.7437 431.643 97.0102C432.895 98.929 436.647 97.243 435.398 95.3278C434.73 94.3032 433.645 93.3468 432.807 92.4018C430.738 90.0663 428.668 87.7307 426.599 85.3952C421.931 80.1273 417.263 74.8594 412.595 69.5915C411.528 68.3866 410.446 67.1886 409.392 65.9767C407.847 64.2005 404.079 65.8674 405.637 67.6591Z" fill="#D8BA8B"/>
<path d="M500.124 129.724C498.948 145.12 493.482 160.635 482.097 173.492C471.012 186.012 454.378 194.181 435.637 198.443C416.652 202.76 396.707 203.631 377.08 204.856C356.794 206.122 336.603 207.799 317.221 212.801C296.039 218.268 275.495 225.665 257.327 235.71C252.789 238.219 248.386 240.881 244.178 243.708C240.876 245.928 237.796 248.336 234.345 250.424C228.502 253.96 221.884 256.803 215.056 259.054C200.248 263.934 183.904 266.075 167.836 266.038C151.29 266 134.486 263.628 119.348 258.411C102.828 252.718 89.398 243.798 79.2494 232.311C67.898 219.462 62.0904 204.514 62.762 188.991C63.4649 172.738 70.6181 156.966 80.0371 142.541C90.808 126.045 103.343 110.095 110.706 92.4301C117.023 77.2753 118.927 61.1866 126.389 46.2921C129.956 39.1745 135.084 32.6733 141.975 27.1609C148.643 21.8272 156.465 17.4406 164.973 13.9872C182.064 7.05043 201.917 3.93211 221.176 5.49148C232.724 6.42642 244.213 8.97685 255.163 11.8567C266.774 14.9104 278.305 17.7679 290.372 19.5974C302.337 21.4114 314.517 22.4682 326.71 22.7043C332.671 22.8197 338.638 22.7383 344.589 22.4597C350.804 22.1685 356.959 21.5096 363.157 21.0977C385.537 19.6106 407.725 22.0558 427.976 29.6839C446.026 36.4827 462.005 46.6496 473.864 59.1171C486.794 72.7122 495.008 88.6551 498.519 105.229C500.232 113.314 500.696 121.549 500.124 129.724C499.894 133.004 506.549 132.994 506.779 129.724C509.163 95.6725 492.263 60.7309 457.786 38.5698C441.791 28.2887 422.65 20.7683 402.158 17.5059C390.033 15.5754 377.577 15.1661 365.244 15.8675C358.742 16.2373 352.29 16.9665 345.782 17.3004C339.436 17.626 333.069 17.7274 326.711 17.6032C314.305 17.3614 301.953 16.2647 289.807 14.314C283.839 13.3555 277.924 12.1997 272.085 10.8527C265.944 9.43593 259.965 7.67868 253.873 6.15204C242.691 3.34976 231.056 1.01528 219.302 0.254188C209.31 -0.39277 199.182 0.218479 189.385 1.82312C169.769 5.0358 150.936 12.5411 137.054 23.7279C122.126 35.7588 116.413 51.4797 111.904 67.2942C109.631 75.2666 107.533 83.2907 104.289 91.0741C100.552 100.039 95.3972 108.592 89.8588 116.975C79.2084 133.096 67.1147 148.701 60.8003 166.251C55.2716 181.617 54.1104 198.028 60.1179 213.423C65.9268 228.309 78.0269 242.477 93.7698 252.311C120.823 269.21 158.493 274.13 192.286 269.484C208.136 267.305 223.922 262.803 236.856 255.332C240.157 253.425 243.151 251.308 246.191 249.167C250.427 246.184 254.875 243.378 259.512 240.769C268.712 235.593 278.56 231.11 288.782 227.229C308.227 219.848 328.879 214.454 350.38 212.077C371.012 209.796 391.92 209.489 412.569 207.3C432.065 205.232 451.753 201.23 467.8 192.127C484.735 182.521 495.836 168.389 501.684 153.024C504.567 145.449 506.177 137.596 506.779 129.724C507.029 126.445 500.374 126.456 500.124 129.724Z" fill="#A3825A"/>
</svg>
